<?xml version="1.0" encoding="iso-8859-1"?>
<!-- Generator: Adobe Illustrator 19.0.0, SVG Export Plug-In . SVG Version: 6.00 Build 0)  -->
<svg version="1.1" id="Layer_1" xmlns="http://www.w3.org/2000/svg" xmlns:xlink="http://www.w3.org/1999/xlink" x="0px" y="0px"
	 viewBox="0 0 512.003 512.003" style="enable-background:new 0 0 512.003 512.003;" xml:space="preserve">
<rect x="127.907" y="480.178" style="fill:#D5C9B3;" width="264.208" height="24.02"/>
<rect x="135.91" y="103.885" style="fill:#36A9E1;" width="248.191" height="376.293"/>
<g>
	<path style="fill:#5EBAE7;" d="M187.949,448.151L187.949,448.151c-11.055,0-20.015-8.962-20.015-20.015V103.881h40.031v324.254
		C207.965,439.189,199.004,448.151,187.949,448.151z"/>
	<path style="fill:#5EBAE7;" d="M260.006,448.151L260.006,448.151c-11.055,0-20.015-8.962-20.015-20.015V103.881h40.031v324.254
		C280.022,439.189,271.06,448.151,260.006,448.151z"/>
	<path style="fill:#5EBAE7;" d="M332.062,448.151L332.062,448.151c-11.055,0-20.015-8.962-20.015-20.015V103.881h40.031v324.254
		C352.078,439.189,343.116,448.151,332.062,448.151z"/>
</g>
<rect x="111.89" y="71.851" style="fill:#CBBBA0;" width="288.227" height="32.025"/>
<rect x="111.89" y="71.851" style="fill:#D5C9B3;" width="152.122" height="32.025"/>
<g>
	<polygon style="fill:#1D1D1B;" points="391.908,487.981 128.103,487.981 128.103,119.893 143.714,119.893 143.714,472.37 
		376.297,472.37 376.297,119.893 391.908,119.893 	"/>
	<polygon style="fill:#1D1D1B;" points="303.839,39.83 288.228,39.83 288.228,15.611 223.777,15.611 223.777,39.83 208.166,39.83 
		208.166,0 303.839,0 	"/>
	<path style="fill:#1D1D1B;" d="M303.839,64.05V47.837h-15.611V64.05h-64.452V47.837h-15.611V64.05H104.083v47.636H407.92V64.05
		H303.839z M392.31,96.075H119.695V79.661H392.31V96.075z"/>
	<rect x="127.907" y="496.392" style="fill:#1D1D1B;" width="263.344" height="15.611"/>
	<path style="fill:#1D1D1B;" d="M187.949,455.956c-15.34,0-27.821-12.48-27.821-27.821V119.893h15.611v308.242
		c0,6.732,5.477,12.21,12.21,12.21c6.732,0,12.21-5.477,12.21-12.21V119.893h15.611v308.242
		C215.77,443.476,203.29,455.956,187.949,455.956z"/>
	<path style="fill:#1D1D1B;" d="M260.006,455.956c-15.34,0-27.821-12.48-27.821-27.821V119.893h15.611v308.242
		c0,6.732,5.477,12.21,12.21,12.21s12.21-5.477,12.21-12.21V119.893h15.611v308.242
		C287.827,443.476,275.346,455.956,260.006,455.956z"/>
	<path style="fill:#1D1D1B;" d="M332.062,455.956c-15.34,0-27.821-12.48-27.821-27.821V119.893h15.611v308.242
		c0,6.732,5.477,12.21,12.21,12.21c6.732,0,12.21-5.477,12.21-12.21V119.893h15.611v308.242
		C359.884,443.476,347.403,455.956,332.062,455.956z"/>
</g>
<g>
</g>
<g>
</g>
<g>
</g>
<g>
</g>
<g>
</g>
<g>
</g>
<g>
</g>
<g>
</g>
<g>
</g>
<g>
</g>
<g>
</g>
<g>
</g>
<g>
</g>
<g>
</g>
<g>
</g>
</svg>
