<?xml version="1.0" encoding="UTF-8" standalone="no"?>
<svg width="32px" height="32px" viewBox="0 0 32 32" xmlns="http://www.w3.org/2000/svg">
  <g
     id="work-suitcase"
     transform="matrix(0.77262289,0,0,0.78000979,-974.26178,-29.865453)">
    <rect
       id="Rectangle_17"
       data-name="Rectangle 17"
       width="30"
       height="16.27"
       transform="translate(1266,57.73)"
       fill="#99ecff"
       stroke="#333333"
       stroke-linecap="round"
       stroke-linejoin="round"
       stroke-width="2"
       x="0"
       y="0"
       style="stroke:#cfc3cf;stroke-opacity:1;fill:#ffffff;fill-opacity:1" />
    <path
       id="Rectangle_18"
       data-name="Rectangle 18"
       d="M 2.543,0 H 27.457 A 2.543,2.543 0 0 1 30,2.543 V 11.71 A 3.29,3.29 0 0 1 26.71,15 H 3.29 A 3.29,3.29 0 0 1 0,11.71 V 2.543 A 2.543,2.543 0 0 1 2.543,0 Z"
       transform="translate(1266,49)"
       fill="#99ecff"
       stroke="#333333"
       stroke-linecap="round"
       stroke-linejoin="round"
       stroke-width="2"
       style="stroke:#cfc3cf;stroke-opacity:1;fill:#ffffff;fill-opacity:1" />
    <path
       id="Rectangle_19"
       data-name="Rectangle 19"
       d="m 2.6,0 h 8.8 A 2.6,2.6 0 0 1 14,2.6 V 5 H 0 V 2.6 A 2.6,2.6 0 0 1 2.6,0 Z"
       transform="translate(1274,44)"
       fill="none"
       stroke="#333333"
       stroke-linecap="round"
       stroke-linejoin="round"
       stroke-width="2"
       style="stroke:#cfc3cf;stroke-opacity:1" />
    <rect
       id="Rectangle_20"
       data-name="Rectangle 20"
       width="4"
       height="6"
       transform="translate(1279,61)"
       fill="#e8f7f9"
       stroke="#333333"
       stroke-linecap="round"
       stroke-linejoin="round"
       stroke-width="2"
       x="0"
       y="0"
       style="stroke:#cfc3cf;stroke-opacity:1" />
  </g>
</svg>
