<?xml version="1.0" encoding="iso-8859-1"?>
<!-- Uploaded to: SVG Repo, www.svgrepo.com, Generator: SVG Repo Mixer Tools -->
<svg height="800px" width="800px" version="1.1" id="Layer_1" xmlns="http://www.w3.org/2000/svg" xmlns:xlink="http://www.w3.org/1999/xlink" 
	 viewBox="0 0 512 512" xml:space="preserve">
<g transform="translate(1 1)">
	<path style="fill:#63D3FD;" d="M511,255H268.017V12.017h190.915c28.637,0,52.068,23.431,52.068,52.068V255z"/>
	<path style="fill:#FFE100;" d="M268.017,255H511v190.915c0,28.637-23.431,52.068-52.068,52.068H268.017V255z"/>
	<path style="fill:#3DB9F9;" d="M493.644,255H250.661V12.017h190.915c28.637,0,52.068,23.431,52.068,52.068V255z"/>
	<path style="fill:#63D3FD;" d="M467.61,255H250.661V12.017h164.881c28.637,0,52.068,23.431,52.068,52.068V255z"/>
	<path style="fill:#FFFFFF;" d="M7.678,255h242.983v242.983H59.746c-28.637,0-52.068-23.431-52.068-52.068V255z"/>
	<path style="fill:#63D3FD;" d="M33.712,255h216.949v242.983H85.78c-28.637,0-52.068-23.431-52.068-52.068V255z"/>
	<path style="fill:#FFFFFF;" d="M250.661,255H7.678V64.085c0-28.637,23.431-52.068,52.068-52.068h190.915V255z"/>
	<path style="fill:#FFE100;" d="M250.661,255H33.712V64.085c0-28.637,23.431-52.068,52.068-52.068h164.881V255z"/>
	<path style="fill:#FFA800;" d="M250.661,255h242.983v190.915c0,28.637-23.431,52.068-52.068,52.068H250.661V255z"/>
	<path style="fill:#FFE100;" d="M250.661,255H467.61v190.915c0,28.637-23.431,52.068-52.068,52.068H250.661V255z"/>
	<path d="M493.644,263.678H250.661c-5.207,0-8.678-3.471-8.678-8.678V12.017c0-5.207,3.471-8.678,8.678-8.678h190.915
		c33.844,0,60.746,26.902,60.746,60.746V255C502.322,260.207,498.851,263.678,493.644,263.678z M259.339,246.322h225.627V64.085
		c0-24.298-19.092-43.39-43.39-43.39H259.339V246.322z"/>
	<path d="M250.661,263.678H7.678C2.471,263.678-1,260.207-1,255V64.085C-1,30.241,25.902,3.339,59.746,3.339h190.915
		c5.207,0,8.678,3.471,8.678,8.678V255C259.339,260.207,255.868,263.678,250.661,263.678z M16.356,246.322h225.627V20.695H59.746
		c-24.298,0-43.39,19.092-43.39,43.39V246.322z"/>
	<path d="M441.576,506.661H250.661c-5.207,0-8.678-3.471-8.678-8.678V255c0-5.207,3.471-8.678,8.678-8.678h242.983
		c5.207,0,8.678,3.471,8.678,8.678v190.915C502.322,479.759,475.42,506.661,441.576,506.661z M259.339,489.305h182.237
		c24.298,0,43.39-19.092,43.39-43.39V263.678H259.339V489.305z"/>
	<path d="M250.661,506.661H59.746C25.902,506.661-1,479.759-1,445.915V255c0-5.207,3.471-8.678,8.678-8.678h242.983
		c5.207,0,8.678,3.471,8.678,8.678v242.983C259.339,503.19,255.868,506.661,250.661,506.661z M16.356,263.678v182.237
		c0,24.298,19.092,43.39,43.39,43.39h182.237V263.678H16.356z"/>
	<path d="M129.169,194.254c-5.207,0-8.678-3.471-8.678-8.678V81.441c0-5.207,3.471-8.678,8.678-8.678s8.678,3.471,8.678,8.678
		v104.136C137.847,190.783,134.376,194.254,129.169,194.254z"/>
	<path d="M181.237,142.186H77.102c-5.207,0-8.678-3.471-8.678-8.678c0-5.207,3.471-8.678,8.678-8.678h104.136
		c5.207,0,8.678,3.471,8.678,8.678C189.915,138.715,186.444,142.186,181.237,142.186z"/>
	<path d="M85.78,428.559c-2.603,0-4.339-0.868-6.075-2.603c-3.471-3.471-3.471-8.678,0-12.149l86.78-86.78
		c3.471-3.471,8.678-3.471,12.149,0c3.471,3.471,3.471,8.678,0,12.149l-86.78,86.78C90.119,427.692,88.383,428.559,85.78,428.559z"
		/>
	<path d="M172.559,428.559c-2.603,0-4.339-0.868-6.075-2.603l-86.78-86.78c-3.471-3.471-3.471-8.678,0-12.149
		c3.471-3.471,8.678-3.471,12.149,0l86.78,86.78c3.471,3.471,3.471,8.678,0,12.149C176.898,427.692,175.163,428.559,172.559,428.559
		z"/>
	<path d="M424.22,142.186H320.085c-5.207,0-8.678-3.471-8.678-8.678c0-5.207,3.471-8.678,8.678-8.678H424.22
		c5.207,0,8.678,3.471,8.678,8.678C432.898,138.715,429.427,142.186,424.22,142.186z"/>
	<path d="M424.22,411.203H320.085c-5.207,0-8.678-3.471-8.678-8.678s3.471-8.678,8.678-8.678H424.22
		c5.207,0,8.678,3.471,8.678,8.678S429.427,411.203,424.22,411.203z"/>
	<path d="M424.22,359.136H320.085c-5.207,0-8.678-3.471-8.678-8.678c0-5.207,3.471-8.678,8.678-8.678H424.22
		c5.207,0,8.678,3.471,8.678,8.678C432.898,355.664,429.427,359.136,424.22,359.136z"/>
</g>
</svg>