<?xml version="1.0" encoding="UTF-8" standalone="no"?>
<svg
   fill="#194f82"
   height="24px"
   width="24px"
   version="1.1"
   id="Capa_1"
   viewBox="-147 -147 784.00 784.00"
   xml:space="preserve"
   stroke="#194f82"
   stroke-width="2.94"
   transform="rotate(0)"
   sodipodi:docname="TAG.svg"
   inkscape:version="1.2.2 (732a01da63, 2022-12-09)"
   xmlns:inkscape="http://www.inkscape.org/namespaces/inkscape"
   xmlns:sodipodi="http://sodipodi.sourceforge.net/DTD/sodipodi-0.dtd"
   xmlns:xlink="http://www.w3.org/1999/xlink"
   xmlns="http://www.w3.org/2000/svg"
   xmlns:svg="http://www.w3.org/2000/svg"><defs
   id="defs32"><linearGradient
     id="linearGradient2242"
     inkscape:swatch="solid"><stop
       style="stop-color:#3d6889;stop-opacity:1;"
       offset="0"
       id="stop2240" /></linearGradient><linearGradient
     id="linearGradient883"
     inkscape:swatch="solid"><stop
       style="stop-color:#ffc10d;stop-opacity:1;"
       offset="0"
       id="stop881" /></linearGradient><linearGradient
     id="linearGradient871"
     inkscape:swatch="solid"><stop
       style="stop-color:#825719;stop-opacity:1;"
       offset="0"
       id="stop869" /></linearGradient><linearGradient
     inkscape:collect="always"
     xlink:href="#linearGradient871"
     id="linearGradient873"
     x1="30.292"
     y1="245"
     x2="459.709"
     y2="245"
     gradientUnits="userSpaceOnUse" /></defs><sodipodi:namedview
   id="namedview30"
   pagecolor="#ffffff"
   bordercolor="#666666"
   borderopacity="1.0"
   inkscape:showpageshadow="2"
   inkscape:pageopacity="0.0"
   inkscape:pagecheckerboard="0"
   inkscape:deskcolor="#d1d1d1"
   showgrid="false"
   inkscape:zoom="90.509668"
   inkscape:cx="11.203223"
   inkscape:cy="13.821728"
   inkscape:window-width="2451"
   inkscape:window-height="1417"
   inkscape:window-x="101"
   inkscape:window-y="321"
   inkscape:window-maximized="1"
   inkscape:current-layer="Capa_1" />
<g
   id="SVGRepo_bgCarrier"
   stroke-width="0"
   transform="matrix(0.74400241,0,0,0.74400241,62.71941,62.71941)">
<rect
   x="-147"
   y="-147"
   width="784"
   height="784"
   rx="62.720001"
   fill="#7ed0ec"
   stroke="#3d6889"
   stroke-width="45"
   id="rect18"
   style="stroke-width:65.86000172;stroke-dasharray:none">
</rect>
</g>
<g
   id="SVGRepo_tracerCarrier"
   stroke-linecap="round"
   stroke-linejoin="round"
   stroke="#ffc10d"
   stroke-width="45"
   transform="matrix(0.74400241,0,0,0.74400241,168.83041,168.83041)">
</g>
<g
   id="SVGRepo_iconCarrier"
   stroke-linecap="round"
   stroke-linejoin="round"
   transform="matrix(0.8942626,0,0,0.8942626,25.905216,25.905663)"> 
<g
   id="g26"
   style="fill:#3d6889;fill-opacity:1;stroke:none;stroke-width:4;stroke-linecap:round;stroke-linejoin:round;stroke-dasharray:none;stroke-opacity:1;paint-order:normal"> 
<path
   d="M 327.08,180.984 H 192.677 L 161.05,309.958 h 133.984 z m -146.5,113.662 24.12,-98.35 h 102.791 l -24.419,98.35 z"
   id="path22"
   style="fill:#3d6889;fill-opacity:1;stroke:none;stroke-width:4;stroke-linecap:round;stroke-linejoin:round;stroke-dasharray:none;stroke-opacity:1;paint-order:normal">
</path> 
<path
   d="m 60.517,490 h 72.241 L 165.521,356.614 H 268.013 L 235.639,490 H 307.85 L 340.613,356.614 H 458.238 V 294.646 H 355.702 l 24.434,-98.35 h 78.103 V 134.328 H 395.195 L 427.957,0 H 355.342 L 322.579,134.328 H 219.728 L 252.492,0 H 180.236 L 147.488,134.328 H 31.762 v 61.968 h 100.683 l -24.12,98.35 H 31.762 v 61.968 H 93.281 Z M 47.074,341.301 v -31.343 h 73.273 L 151.974,180.983 H 47.074 V 149.64 H 159.51 L 192.258,15.312 h 40.734 L 200.229,149.64 H 334.602 L 367.365,15.312 h 41.093 L 375.695,149.64 h 67.231 v 31.343 h -74.753 l -32.061,128.975 h 106.814 v 31.343 H 328.621 L 295.858,474.687 H 255.109 L 287.484,341.301 H 153.529 L 120.766,474.687 H 80.047 L 112.81,341.301 Z"
   id="path24"
   style="fill:#3d6889;fill-opacity:1;stroke:none;stroke-width:4;stroke-linecap:round;stroke-linejoin:round;stroke-dasharray:none;stroke-opacity:1;paint-order:normal">
</path> 
</g> 
<path
   style="fill:#ffc10d;fill-opacity:1;stroke-width:0.0220971;stroke-linecap:round;stroke-linejoin:round;stroke-dasharray:none"
   d="m 10.282782,13.194723 c 0.02082,-0.08659 0.168411,-0.689429 0.327971,-1.339636 l 0.290108,-1.182194 1.399666,-0.0028 c 0.797969,-0.0016 1.399667,0.0014 1.399667,0.0069 0,0.0086 -0.624881,2.530327 -0.652643,2.633751 l -0.01112,0.04143 H 11.640675 10.24492 Z"
   id="path1462"
   transform="matrix(36.529166,0,0,36.529166,-193.34949,-193.34999)" /></g>
<path
   style="fill:#ffc10d;fill-opacity:1;stroke-width:0.0220971;stroke-linecap:round;stroke-linejoin:round;stroke-dasharray:none"
   d="M 4.3402488,20.394909 C 3.994409,20.332198 3.7241669,20.084843 3.6167683,19.732699 3.597275,19.668783 3.5964271,19.393607 3.5931072,12.053961 3.5905568,6.4156091 3.5929155,4.420532 3.6022025,4.3606026 3.6584027,3.9979412 3.9215254,3.7115702 4.2868349,3.6154794 l 0.093913,-0.024703 h 7.6124461 c 7.374441,0 7.61521,6.407e-4 7.700835,0.020491 0.168872,0.03915 0.299561,0.1078743 0.423709,0.2228132 0.121638,0.1126159 0.219603,0.2746162 0.263766,0.436181 0.01872,0.068487 0.01963,0.4272422 0.01963,7.7395054 v 7.667689 l -0.03647,0.104961 c -0.04693,0.135043 -0.107412,0.236402 -0.199031,0.333524 -0.123286,0.130689 -0.243126,0.205201 -0.418487,0.260199 l -0.09731,0.03052 -7.612447,0.0018 c -6.4564644,0.0015 -7.6253069,-5.3e-4 -7.6971388,-0.01355 z m 5.0399117,-3.507242 0.4474132,-1.822978 h 1.3949313 c 0.791132,0 1.394932,0.0042 1.394932,0.0097 0,0.0053 -0.196388,0.818742 -0.436418,1.807595 -0.240029,0.988854 -0.436417,1.804879 -0.436417,1.813389 0,0.01317 0.147459,0.01505 0.991133,0.01265 l 0.991134,-0.0028 0.389494,-1.585466 c 0.214222,-0.872006 0.415308,-1.691118 0.446858,-1.820247 l 0.05736,-0.234782 h 1.611407 1.611406 V 14.208427 13.352165 H 16.43905 c -1.118876,0 -1.403293,-0.0028 -1.399163,-0.01381 0.0029,-0.0076 0.153646,-0.611675 0.3351,-1.342398 l 0.329916,-1.328587 h 1.069248 1.069247 V 9.8166309 8.965893 H 16.980414 16.11743 l 0.0077,-0.030383 c 0.0069,-0.027048 0.869374,-3.5625122 0.884058,-3.6239222 l 0.0059,-0.024859 h -0.998735 -0.998737 l -0.03373,0.1353447 c -0.01855,0.07444 -0.218353,0.8935509 -0.444005,1.8202475 -0.225651,0.9266966 -0.412783,1.6936036 -0.415848,1.7042379 -0.0053,0.018283 -0.08188,0.019335 -1.408739,0.019335 -1.331305,0 -1.402852,-9.899e-4 -1.397065,-0.019335 0.0068,-0.02165 0.872092,-3.56755 0.884301,-3.6239223 l 0.0078,-0.035908 h -0.99518 c -0.547386,0 -0.995247,0.00274 -0.995247,0.00609 0,0.00663 -0.8665594,3.5637815 -0.884705,3.63164 L 9.324119,8.9658906 H 7.739079 6.1540388 v 0.850695 0.8506954 l 1.378754,0.0028 1.378754,0.0028 -0.3214282,1.309252 c -0.1767857,0.720101 -0.3249945,1.322937 -0.329353,1.339648 l -0.00792,0.03038 H 7.2034399 6.1540387 v 0.856262 0.856262 H 6.993728 c 0.5278528,0 0.8396893,0.0039 0.8396893,0.01058 0,0.0058 -0.1988738,0.820298 -0.4419417,1.809948 -0.243068,0.989651 -0.4419418,1.805242 -0.4419418,1.812427 0,0.01 0.2359806,0.01305 0.9916068,0.01303 H 8.9327474 L 9.3801605,16.8877 Z"
   id="path1480"
   transform="matrix(32.666667,0,0,32.666667,-147,-147)" /><path
   style="fill:#3d6889;fill-opacity:1;stroke-width:0.1;stroke-linecap:round;stroke-linejoin:round;stroke-dasharray:none;stroke:#3d6889;stroke-opacity:1;paint-order:markers stroke fill"
   d="m 7.4955036,18.26048 c 0.00673,-0.02141 0.8903409,-3.616946 0.8903409,-3.622933 0,-0.0021 -0.4052054,-0.0038 -0.9004563,-0.0038 H 6.5849319 v -0.425369 -0.425369 h 1.0045319 1.0045318 l 0.017132,-0.07458 c 0.00942,-0.04102 0.2037227,-0.834884 0.4317788,-1.764147 0.228056,-0.929263 0.4146472,-1.691198 0.4146472,-1.693189 0,-0.002 -0.6463398,-0.0036 -1.4363107,-0.0036 H 6.5849319 V 9.8221551 9.3967862 H 8.1242908 9.6636496 L 9.7101109,9.2061988 C 9.7356645,9.1013758 9.9371772,8.2748066 10.157917,7.3693785 l 0.401345,-1.646233 0.553692,-0.00286 c 0.441341,-0.00228 0.55269,-4.11e-5 0.548752,0.011049 -0.0088,0.024647 -0.889376,3.6432124 -0.889376,3.6545323 0,0.00716 0.635481,0.010924 1.842348,0.010924 h 1.842348 l 0.44788,-1.8368203 0.44788,-1.8368204 0.554772,-0.00286 c 0.363647,-0.00188 0.554772,9.343e-4 0.554772,0.00816 0,0.00606 -0.198874,0.8265208 -0.441942,1.8232363 -0.243068,0.9967157 -0.441942,1.819612 -0.441942,1.8286585 0,0.014433 0.112343,0.016448 0.917029,0.016448 h 0.917029 v 0.425305 0.4253121 l -1.024047,0.0028 -1.024048,0.0028 -0.437689,1.762243 -0.437689,1.762243 1.461737,0.0028 1.461736,0.0028 v 0.42529 0.425291 l -1.564831,0.0028 -1.564832,0.0028 -0.318895,1.298204 c -0.175392,0.714012 -0.376635,1.533123 -0.447207,1.820247 l -0.128313,0.522044 h -0.552421 -0.55242 l 0.0077,-0.03038 c 0.0042,-0.01671 0.201329,-0.828365 0.437965,-1.803675 0.236636,-0.97531 0.43291,-1.781992 0.436165,-1.792626 0.0056,-0.01836 -0.08679,-0.01933 -1.833664,-0.01933 -1.7424167,0 -1.8398872,10e-4 -1.8453583,0.01933 -0.00318,0.01063 -0.202631,0.822288 -0.4432311,1.803674 -0.2406003,0.981387 -0.4400307,1.793041 -0.4431789,1.803675 -0.00535,0.01808 -0.041576,0.01933 -0.5581512,0.01933 -0.5210716,0 -0.552082,-0.0011 -0.5463469,-0.01933 z m 6.3143344,-6.231378 c 0.239327,-0.964676 0.437391,-1.760171 0.440143,-1.767767 0.004,-0.01101 -0.368865,-0.01381 -1.840859,-0.01381 h -1.845863 l -0.01102,0.04143 c -0.0297,0.111633 -0.8516139,3.472879 -0.8516139,3.482724 0,0.0078 0.5842549,0.01138 1.8370379,0.01138 h 1.837038 z"
   id="path1705"
   transform="matrix(32.666667,0,0,32.666667,-147,-147)" /><path
   style="fill:#3d6889;fill-opacity:1;stroke-width:0.0220971;stroke-linecap:round;stroke-linejoin:round;stroke-dasharray:none"
   d=""
   id="path1707"
   transform="matrix(32.666667,0,0,32.666667,-147,-147)" /></svg>
